<?xml version="1.0" standalone="no"?><!DOCTYPE svg PUBLIC "-//W3C//DTD SVG 1.1//EN" "http://www.w3.org/Graphics/SVG/1.1/DTD/svg11.dtd"><svg t="1711988647428" class="icon" viewBox="0 0 1024 1024" version="1.1" xmlns="http://www.w3.org/2000/svg" p-id="19833" xmlns:xlink="http://www.w3.org/1999/xlink" width="200" height="200"><path d="M510.4 64C260.9 64 56.8 268.1 56.8 511.9s204.1 447.9 447.9 447.9 453.6-198.4 453.6-447.9S754.2 64 510.4 64z m0 844.8c-221.1 0-391.2-175.8-391.2-391.2s170.1-396.9 391.2-396.9 391.2 175.8 391.2 391.2-175.8 396.9-391.2 396.9z" p-id="19834" fill="#ffffff"></path><path d="M370.1 494.8c-5.7 5.7-5.7 17-5.7 22.7s0 11.4 11.3 22.7l221.1 221.2c11.4 11.3 28.4 11.4 39.7 0s11.3-28.4 0-39.7L432.4 517.6l209.8-209.8c11.3-11.4 11.4-28.4 0-39.7s-28.4-11.3-39.7 0L370.1 494.8z" p-id="19835" fill="#ffffff"></path></svg>