<?xml version="1.0" standalone="no"?><!DOCTYPE svg PUBLIC "-//W3C//DTD SVG 1.1//EN" "http://www.w3.org/Graphics/SVG/1.1/DTD/svg11.dtd"><svg t="1711963778424" class="icon" viewBox="0 0 1024 1024" version="1.1" xmlns="http://www.w3.org/2000/svg" p-id="8237" xmlns:xlink="http://www.w3.org/1999/xlink" width="200" height="200"><path d="M776.192 1024H247.808C111.616 1024 0 912.384 0 776.192V247.808C0 111.616 111.616 0 247.808 0h528.384C912.384 0 1024 111.616 1024 247.808v528.384c0 136.192-111.616 247.808-247.808 247.808z" fill="#7E8182" p-id="8238"></path><path d="M890.88 385.024c-1.024-37.376-3.072-74.24-14.848-110.592-12.8-39.424-35.328-71.68-68.096-96.768-25.088-19.456-53.76-30.208-83.968-37.376-28.672-6.144-57.344-7.168-86.528-7.68-70.656-2.048-141.312-1.024-211.968-0.512-38.4 0.512-77.312 0-115.712 6.656-35.84 6.144-68.608 18.432-97.28 41.472-48.64 38.912-70.656 91.136-76.8 151.552-3.072 29.696-3.584 59.904-3.584 90.112-0.512 41.472-0.512 83.456-0.512 124.928 0.512 44.032 0 87.552 3.072 131.584 2.048 28.672 6.656 56.32 16.896 82.944 9.216 23.552 22.528 44.544 39.424 62.976 13.824 14.848 29.184 27.136 46.592 36.864 24.064 12.8 49.664 21.504 76.8 25.6 10.752 1.536 22.016 3.072 32.768 3.584 10.24 0.512 19.968 1.024 30.208 1.536 100.352 1.024 201.216 2.56 301.568-2.048 24.064-1.024 47.104-5.12 70.144-12.8 27.648-9.216 52.224-23.04 73.728-42.496 31.232-29.184 50.176-65.536 59.392-107.008 6.656-29.184 7.68-58.368 8.192-88.064 2.56-85.504 2.56-169.984 0.512-254.464z m-68.096 257.536c-0.512 25.088-1.024 50.176-7.68 74.752-5.12 19.456-12.288 37.376-25.6 53.248-19.968 25.088-46.08 39.424-76.8 46.08-17.408 4.096-35.328 5.632-53.76 6.144-81.408 3.072-162.304 1.536-243.712 1.536-26.624 0-53.248-0.512-79.872-3.584-39.424-4.096-74.752-16.896-100.864-48.64-16.896-19.968-25.088-43.52-29.696-69.12-5.632-34.304-5.12-69.12-5.632-103.424-0.512-23.552 0-46.592 0-70.144 0-61.44-1.024-122.88 3.072-184.32 1.536-18.944 4.608-37.888 11.776-55.808 13.824-36.864 39.424-61.952 76.288-75.264 22.016-8.192 45.056-10.752 68.608-11.776 74.24-4.096 147.968-2.56 222.208-2.56 25.088 0 50.176 0.512 75.264 1.536 23.04 1.024 46.592 2.56 69.12 9.216 52.224 16.384 81.408 52.736 92.16 104.96 4.608 21.504 5.12 43.52 5.632 65.024 1.536 88.064 2.048 175.104-0.512 262.144z" fill="#FEFDFE" p-id="8239"></path><path d="M478.72 320c-73.216 13.312-122.368 56.32-150.016 124.928-5.12 12.8-8.192 26.624-10.24 40.448-1.536 9.216-1.024 18.944-1.536 28.16 0.512 21.504 3.584 42.496 11.264 62.464 8.704 24.064 20.992 46.592 38.4 65.536 18.432 19.968 39.424 36.864 65.024 48.128 38.4 16.896 77.824 22.016 119.296 13.824 26.112-5.12 50.176-15.36 72.192-30.208 21.504-14.848 39.424-33.28 53.76-54.784 16.384-25.6 26.112-53.76 29.696-83.968 3.072-28.16 0.512-55.296-8.192-82.432-30.208-90.624-121.856-150.016-219.648-132.096z m140.288 260.096c-4.096 7.168-9.728 13.824-15.872 19.456-7.168 7.168-14.336 13.824-23.04 19.456-56.32 35.84-131.072 22.016-170.496-32.256-15.36-20.48-23.552-44.032-24.576-69.632-3.072-58.368 36.352-112.64 93.184-128 74.24-19.968 148.48 28.672 159.232 104.448 4.608 30.72-0.512 59.904-18.432 86.528zM713.728 263.68c-24.576 0-45.056 20.992-45.056 45.568 0 25.6 20.48 45.568 46.08 45.568 25.088 0 45.056-20.992 45.056-46.08s-20.48-45.056-46.08-45.056z" fill="#FEFDFE" p-id="8240"></path></svg>