<?xml version="1.0" standalone="no"?><!DOCTYPE svg PUBLIC "-//W3C//DTD SVG 1.1//EN" "http://www.w3.org/Graphics/SVG/1.1/DTD/svg11.dtd"><svg t="1711963834993" class="icon" viewBox="0 0 1024 1024" version="1.1" xmlns="http://www.w3.org/2000/svg" p-id="11771" xmlns:xlink="http://www.w3.org/1999/xlink" width="200" height="200"><path d="M0 0m71.68 0l880.64 0q71.68 0 71.68 71.68l0 880.64q0 71.68-71.68 71.68l-880.64 0q-71.68 0-71.68-71.68l0-880.64q0-71.68 71.68-71.68Z" fill="#F80701" p-id="11772" data-spm-anchor-id="a313x.search_index.0.i15.37673a81bwR2fI" class="selected"></path><path d="M883.968 325.952a97.472 97.472 0 0 0-68.672-68.992c-60.544-16.32-303.424-16.32-303.424-16.32s-242.88 0-303.488 16.32c-33.408 8.96-59.712 35.392-68.672 68.992-16.192 60.8-16.192 187.776-16.192 187.776s0 126.976 16.192 187.84c8.96 33.6 35.264 58.88 68.672 67.84 60.608 16.32 303.488 16.32 303.488 16.32s242.88 0 303.424-16.256a96 96 0 0 0 68.672-67.904c16.256-60.8 16.256-187.84 16.256-187.84s0-126.912-16.256-187.776zM432.448 628.992V398.464l203.008 115.264-203.008 115.264z" fill="#FFFFFF" p-id="11773"></path></svg>